<svg xmlns="http://www.w3.org/2000/svg" xmlns:xlink="http://www.w3.org/1999/xlink" width="495" zoomAndPan="magnify" viewBox="0 0 371.25 90.749999" height="121" preserveAspectRatio="xMidYMid meet" version="1.0"><defs><g/></defs><g fill="#ffffff" fill-opacity="1"><g transform="translate(81.998473, 63.250031)"><g><path d="M 49.03125 -27.703125 L 39.15625 0 L 29.75 0 L 24.546875 -15.078125 L 19.125 0 L 9.71875 0 L -0.15625 -27.703125 L 9.046875 -27.703125 L 14.71875 -10.9375 L 20.609375 -27.703125 L 28.890625 -27.703125 L 34.609375 -10.78125 L 40.484375 -27.703125 Z M 49.03125 -27.703125 "/></g></g></g><g fill="#ffffff" fill-opacity="1"><g transform="translate(125.660887, 63.250031)"><g><path d="M 14.921875 -28.171875 C 19.523438 -28.171875 23.035156 -27.117188 25.453125 -25.015625 C 27.878906 -22.921875 29.09375 -19.710938 29.09375 -15.390625 L 29.09375 0 L 20.046875 0 L 20.046875 -3.578125 C 18.640625 -0.890625 15.910156 0.453125 11.859375 0.453125 C 9.710938 0.453125 7.851562 0.078125 6.28125 -0.671875 C 4.71875 -1.421875 3.535156 -2.429688 2.734375 -3.703125 C 1.929688 -4.984375 1.53125 -6.441406 1.53125 -8.078125 C 1.53125 -10.703125 2.535156 -12.738281 4.546875 -14.1875 C 6.554688 -15.632812 9.660156 -16.359375 13.859375 -16.359375 L 19.375 -16.359375 C 19.207031 -19.285156 17.25 -20.75 13.5 -20.75 C 12.164062 -20.75 10.816406 -20.535156 9.453125 -20.109375 C 8.085938 -19.691406 6.929688 -19.109375 5.984375 -18.359375 L 2.703125 -24.953125 C 4.242188 -25.972656 6.113281 -26.765625 8.3125 -27.328125 C 10.507812 -27.890625 12.710938 -28.171875 14.921875 -28.171875 Z M 14.578125 -5.671875 C 15.691406 -5.671875 16.675781 -5.941406 17.53125 -6.484375 C 18.382812 -7.035156 19 -7.835938 19.375 -8.890625 L 19.375 -11.296875 L 15.1875 -11.296875 C 12.351562 -11.296875 10.9375 -10.359375 10.9375 -8.484375 C 10.9375 -7.628906 11.257812 -6.945312 11.90625 -6.4375 C 12.5625 -5.925781 13.453125 -5.671875 14.578125 -5.671875 Z M 14.578125 -5.671875 "/></g></g></g><g fill="#ffffff" fill-opacity="1"><g transform="translate(152.553667, 63.250031)"><g><path d="M 21.171875 -28.171875 C 24.609375 -28.171875 27.375 -27.144531 29.46875 -25.09375 C 31.570312 -23.050781 32.625 -19.96875 32.625 -15.84375 L 32.625 0 L 22.90625 0 L 22.90625 -14.265625 C 22.90625 -18.046875 21.390625 -19.9375 18.359375 -19.9375 C 16.679688 -19.9375 15.335938 -19.390625 14.328125 -18.296875 C 13.328125 -17.210938 12.828125 -15.578125 12.828125 -13.390625 L 12.828125 0 L 3.125 0 L 3.125 -27.703125 L 12.375 -27.703125 L 12.375 -24.6875 C 13.46875 -25.8125 14.757812 -26.671875 16.25 -27.265625 C 17.75 -27.867188 19.390625 -28.171875 21.171875 -28.171875 Z M 21.171875 -28.171875 "/></g></g></g><g fill="#ffffff" fill-opacity="1"><g transform="translate(182.923073, 63.250031)"><g><path d="M 32.5625 -37.9375 L 32.5625 0 L 23.3125 0 L 23.3125 -2.765625 C 21.507812 -0.617188 18.800781 0.453125 15.1875 0.453125 C 12.664062 0.453125 10.363281 -0.128906 8.28125 -1.296875 C 6.195312 -2.472656 4.550781 -4.148438 3.34375 -6.328125 C 2.132812 -8.515625 1.53125 -11.039062 1.53125 -13.90625 C 1.53125 -16.769531 2.132812 -19.28125 3.34375 -21.4375 C 4.550781 -23.601562 6.195312 -25.265625 8.28125 -26.421875 C 10.363281 -27.585938 12.664062 -28.171875 15.1875 -28.171875 C 18.488281 -28.171875 21.046875 -27.21875 22.859375 -25.3125 L 22.859375 -37.9375 Z M 17.234375 -7.265625 C 18.898438 -7.265625 20.273438 -7.847656 21.359375 -9.015625 C 22.453125 -10.191406 23 -11.820312 23 -13.90625 C 23 -15.945312 22.460938 -17.546875 21.390625 -18.703125 C 20.316406 -19.867188 18.929688 -20.453125 17.234375 -20.453125 C 15.523438 -20.453125 14.125 -19.867188 13.03125 -18.703125 C 11.945312 -17.546875 11.40625 -15.945312 11.40625 -13.90625 C 11.40625 -11.820312 11.945312 -10.191406 13.03125 -9.015625 C 14.125 -7.847656 15.523438 -7.265625 17.234375 -7.265625 Z M 17.234375 -7.265625 "/></g></g></g><g fill="#ffffff" fill-opacity="1"><g transform="translate(213.394742, 63.250031)"><g><path d="M 31.4375 -13.796875 C 31.4375 -13.734375 31.382812 -12.9375 31.28125 -11.40625 L 11.140625 -11.40625 C 11.554688 -9.96875 12.347656 -8.863281 13.515625 -8.09375 C 14.691406 -7.332031 16.164062 -6.953125 17.9375 -6.953125 C 19.269531 -6.953125 20.421875 -7.140625 21.390625 -7.515625 C 22.367188 -7.890625 23.347656 -8.503906 24.328125 -9.359375 L 29.453125 -4.03125 C 26.753906 -1.039062 22.816406 0.453125 17.640625 0.453125 C 14.398438 0.453125 11.550781 -0.15625 9.09375 -1.375 C 6.644531 -2.601562 4.742188 -4.304688 3.390625 -6.484375 C 2.046875 -8.671875 1.375 -11.144531 1.375 -13.90625 C 1.375 -16.632812 2.03125 -19.078125 3.34375 -21.234375 C 4.65625 -23.398438 6.46875 -25.097656 8.78125 -26.328125 C 11.101562 -27.554688 13.710938 -28.171875 16.609375 -28.171875 C 19.367188 -28.171875 21.875 -27.597656 24.125 -26.453125 C 26.375 -25.316406 28.15625 -23.664062 29.46875 -21.5 C 30.78125 -19.332031 31.4375 -16.765625 31.4375 -13.796875 Z M 16.671875 -21.265625 C 15.171875 -21.265625 13.914062 -20.835938 12.90625 -19.984375 C 11.90625 -19.140625 11.265625 -17.984375 10.984375 -16.515625 L 22.34375 -16.515625 C 22.070312 -17.984375 21.429688 -19.140625 20.421875 -19.984375 C 19.421875 -20.835938 18.171875 -21.265625 16.671875 -21.265625 Z M 16.671875 -21.265625 "/></g></g></g><g fill="#ffffff" fill-opacity="1"><g transform="translate(241.003299, 63.250031)"><g><path d="M 12.375 -24.390625 C 13.363281 -25.648438 14.648438 -26.59375 16.234375 -27.21875 C 17.816406 -27.851562 19.628906 -28.171875 21.671875 -28.171875 L 21.671875 -19.421875 C 20.785156 -19.523438 20.054688 -19.578125 19.484375 -19.578125 C 17.398438 -19.578125 15.769531 -19.015625 14.59375 -17.890625 C 13.414062 -16.765625 12.828125 -15.046875 12.828125 -12.734375 L 12.828125 0 L 3.125 0 L 3.125 -27.703125 L 12.375 -27.703125 Z M 12.375 -24.390625 "/></g></g></g><g fill="#ffffff" fill-opacity="1"><g transform="translate(258.437589, 63.250031)"><g><path d="M 3.125 -37.9375 L 12.828125 -37.9375 L 12.828125 0 L 3.125 0 Z M 3.125 -37.9375 "/></g></g></g><g fill="#ffffff" fill-opacity="1"><g transform="translate(269.225377, 63.250031)"><g><path d="M 32.265625 -27.703125 L 32.265625 0 L 23 0 L 23 -2.96875 C 21.976562 -1.84375 20.75 -0.988281 19.3125 -0.40625 C 17.882812 0.164062 16.375 0.453125 14.78125 0.453125 C 11.195312 0.453125 8.335938 -0.597656 6.203125 -2.703125 C 4.078125 -4.816406 3.015625 -7.988281 3.015625 -12.21875 L 3.015625 -27.703125 L 12.734375 -27.703125 L 12.734375 -13.796875 C 12.734375 -11.722656 13.125 -10.207031 13.90625 -9.25 C 14.6875 -8.300781 15.828125 -7.828125 17.328125 -7.828125 C 18.859375 -7.828125 20.109375 -8.363281 21.078125 -9.4375 C 22.054688 -10.507812 22.546875 -12.148438 22.546875 -14.359375 L 22.546875 -27.703125 Z M 32.265625 -27.703125 "/></g></g></g><g fill="#ffffff" fill-opacity="1"><g transform="translate(299.390286, 63.250031)"><g><path d="M 13.1875 0.453125 C 10.875 0.453125 8.59375 0.191406 6.34375 -0.328125 C 4.09375 -0.859375 2.285156 -1.550781 0.921875 -2.40625 L 3.828125 -9.046875 C 5.085938 -8.265625 6.585938 -7.644531 8.328125 -7.1875 C 10.066406 -6.726562 11.789062 -6.5 13.5 -6.5 C 15.0625 -6.5 16.175781 -6.660156 16.84375 -6.984375 C 17.507812 -7.304688 17.84375 -7.773438 17.84375 -8.390625 C 17.84375 -9.003906 17.441406 -9.4375 16.640625 -9.6875 C 15.835938 -9.945312 14.566406 -10.191406 12.828125 -10.421875 C 10.617188 -10.703125 8.738281 -11.0625 7.1875 -11.5 C 5.632812 -11.945312 4.296875 -12.765625 3.171875 -13.953125 C 2.046875 -15.148438 1.484375 -16.820312 1.484375 -18.96875 C 1.484375 -20.738281 2.007812 -22.3125 3.0625 -23.6875 C 4.125 -25.070312 5.664062 -26.164062 7.6875 -26.96875 C 9.71875 -27.769531 12.148438 -28.171875 14.984375 -28.171875 C 16.992188 -28.171875 18.984375 -27.960938 20.953125 -27.546875 C 22.929688 -27.140625 24.585938 -26.5625 25.921875 -25.8125 L 23 -19.21875 C 20.550781 -20.582031 17.894531 -21.265625 15.03125 -21.265625 C 13.5 -21.265625 12.375 -21.082031 11.65625 -20.71875 C 10.9375 -20.363281 10.578125 -19.898438 10.578125 -19.328125 C 10.578125 -18.679688 10.96875 -18.226562 11.75 -17.96875 C 12.539062 -17.71875 13.835938 -17.453125 15.640625 -17.171875 C 17.921875 -16.835938 19.8125 -16.445312 21.3125 -16 C 22.8125 -15.5625 24.113281 -14.753906 25.21875 -13.578125 C 26.332031 -12.398438 26.890625 -10.753906 26.890625 -8.640625 C 26.890625 -6.898438 26.359375 -5.335938 25.296875 -3.953125 C 24.242188 -2.578125 22.6875 -1.5 20.625 -0.71875 C 18.5625 0.0625 16.082031 0.453125 13.1875 0.453125 Z M 13.1875 0.453125 "/></g></g></g><g fill="#ffffff" fill-opacity="1"><g transform="translate(322.141785, 63.250031)"><g><path d="M 22.234375 -1.125 C 21.421875 -0.613281 20.425781 -0.222656 19.25 0.046875 C 18.070312 0.316406 16.816406 0.453125 15.484375 0.453125 C 11.878906 0.453125 9.101562 -0.429688 7.15625 -2.203125 C 5.21875 -3.972656 4.25 -6.613281 4.25 -10.125 L 4.25 -19.421875 L 0.203125 -19.421875 L 0.203125 -26.6875 L 4.25 -26.6875 L 4.25 -33.890625 L 13.953125 -33.890625 L 13.953125 -26.6875 L 20.296875 -26.6875 L 20.296875 -19.421875 L 13.953125 -19.421875 L 13.953125 -10.21875 C 13.953125 -9.238281 14.21875 -8.46875 14.75 -7.90625 C 15.28125 -7.34375 15.988281 -7.0625 16.875 -7.0625 C 18 -7.0625 18.988281 -7.347656 19.84375 -7.921875 Z M 22.234375 -1.125 "/></g></g></g><path fill="#ffffff" d="M 57.601562 49.097656 C 57.910156 51.050781 57.972656 53.09375 57.726562 55.15625 C 56.308594 67.230469 45.375 75.859375 33.296875 74.445312 C 23.546875 73.292969 16.039062 65.9375 14.257812 56.785156 C 14.273438 56.769531 38.605469 61.214844 57.601562 49.097656 M 6.859375 51.542969 C 0.136719 47.648438 5.828125 42.835938 12.289062 42.527344 C 10.625 43.066406 3.226562 48.066406 13.78125 51.050781 C 13.824219 51.066406 13.886719 51.082031 13.933594 51.09375 C 13.964844 50.742188 13.996094 50.386719 14.027344 50.019531 C 15.441406 37.945312 26.378906 29.316406 38.453125 30.730469 C 48.035156 31.851562 55.449219 38.992188 57.386719 47.910156 C 53.019531 50.878906 44.035156 53.527344 34.699219 54.496094 C 23.699219 55.632812 12.179688 54.617188 6.859375 51.542969 Z M 6.859375 51.542969 " fill-opacity="1" fill-rule="evenodd"/><path fill="#ffffff" d="M 63.460938 35.515625 C 65.707031 36.730469 69.335938 39.066406 70.785156 38.359375 C 71.890625 37.804688 73.015625 37.253906 74.136719 36.699219 C 77.722656 34.945312 79.042969 37.914062 75.984375 39.976562 L 73.167969 41.945312 C 71.84375 42.867188 72.03125 46.710938 72.121094 49.265625 C 72.167969 50.402344 71.738281 51.035156 71.167969 51.433594 C 70.875 51.632812 70.738281 51.585938 70.644531 51.25 C 70.0625 49.003906 69.492188 46.757812 68.90625 44.511719 C 68.800781 44.066406 68.660156 43.882812 68.214844 44.097656 C 66.644531 44.867188 65.078125 45.621094 63.507812 46.390625 C 63.386719 46.449219 63.324219 46.511719 63.355469 46.648438 C 63.554688 48.125 63.355469 49.679688 62.355469 50.234375 C 62.125 50.355469 61.984375 50.371094 61.9375 50.066406 C 61.800781 49.140625 61.769531 47.925781 61.617188 47.082031 C 60.941406 47.265625 60.585938 46.695312 60.984375 46.171875 L 58.492188 44.851562 C 57.925781 44.542969 58.246094 44.25 58.695312 44.113281 C 59.648438 43.820312 61 44.265625 62.078125 44.851562 C 62.246094 44.941406 62.339844 44.957031 62.492188 44.835938 L 66.832031 41.359375 C 67.183594 41.066406 67.09375 40.960938 66.785156 40.714844 L 61.015625 36.007812 C 60.695312 35.746094 60.785156 35.574219 61.15625 35.421875 C 61.894531 35.113281 62.523438 34.992188 63.460938 35.515625 " fill-opacity="1" fill-rule="evenodd"/><g fill="#ffffff" fill-opacity="1"><g transform="translate(91.832244, 75.937565)"><g><path d="M 4.515625 -2.671875 L 4.515625 0 L 2.765625 0 L 2.765625 -2.6875 L -0.15625 -7.53125 L 1.703125 -7.53125 L 3.71875 -4.1875 L 5.734375 -7.53125 L 7.4375 -7.53125 Z M 4.515625 -2.671875 "/></g></g></g><g fill="#ffffff" fill-opacity="1"><g transform="translate(101.240859, 75.937565)"><g><path d="M 4.546875 0.125 C 3.765625 0.125 3.054688 -0.0390625 2.421875 -0.375 C 1.796875 -0.707031 1.304688 -1.171875 0.953125 -1.765625 C 0.597656 -2.359375 0.421875 -3.023438 0.421875 -3.765625 C 0.421875 -4.503906 0.597656 -5.171875 0.953125 -5.765625 C 1.304688 -6.359375 1.796875 -6.820312 2.421875 -7.15625 C 3.054688 -7.5 3.765625 -7.671875 4.546875 -7.671875 C 5.328125 -7.671875 6.03125 -7.5 6.65625 -7.15625 C 7.28125 -6.820312 7.769531 -6.359375 8.125 -5.765625 C 8.488281 -5.171875 8.671875 -4.503906 8.671875 -3.765625 C 8.671875 -3.023438 8.488281 -2.359375 8.125 -1.765625 C 7.769531 -1.171875 7.28125 -0.707031 6.65625 -0.375 C 6.03125 -0.0390625 5.328125 0.125 4.546875 0.125 Z M 4.546875 -1.359375 C 4.984375 -1.359375 5.378906 -1.457031 5.734375 -1.65625 C 6.097656 -1.863281 6.382812 -2.148438 6.59375 -2.515625 C 6.800781 -2.878906 6.90625 -3.296875 6.90625 -3.765625 C 6.90625 -4.234375 6.800781 -4.648438 6.59375 -5.015625 C 6.382812 -5.378906 6.097656 -5.660156 5.734375 -5.859375 C 5.378906 -6.066406 4.984375 -6.171875 4.546875 -6.171875 C 4.097656 -6.171875 3.691406 -6.066406 3.328125 -5.859375 C 2.972656 -5.660156 2.691406 -5.378906 2.484375 -5.015625 C 2.285156 -4.648438 2.1875 -4.234375 2.1875 -3.765625 C 2.1875 -3.296875 2.285156 -2.878906 2.484375 -2.515625 C 2.691406 -2.148438 2.972656 -1.863281 3.328125 -1.65625 C 3.691406 -1.457031 4.097656 -1.359375 4.546875 -1.359375 Z M 4.546875 -1.359375 "/></g></g></g><g fill="#ffffff" fill-opacity="1"><g transform="translate(112.457717, 75.937565)"><g><path d="M 4.234375 0.125 C 3.160156 0.125 2.320312 -0.171875 1.71875 -0.765625 C 1.125 -1.359375 0.828125 -2.207031 0.828125 -3.3125 L 0.828125 -7.53125 L 2.578125 -7.53125 L 2.578125 -3.375 C 2.578125 -2.03125 3.132812 -1.359375 4.25 -1.359375 C 4.800781 -1.359375 5.21875 -1.519531 5.5 -1.84375 C 5.789062 -2.175781 5.9375 -2.6875 5.9375 -3.375 L 5.9375 -7.53125 L 7.65625 -7.53125 L 7.65625 -3.3125 C 7.65625 -2.207031 7.351562 -1.359375 6.75 -0.765625 C 6.15625 -0.171875 5.316406 0.125 4.234375 0.125 Z M 4.234375 0.125 "/></g></g></g><g fill="#ffffff" fill-opacity="1"><g transform="translate(123.071829, 75.937565)"><g><path d="M 5.6875 0 L 4.234375 -2.09375 L 2.640625 -2.09375 L 2.640625 0 L 0.890625 0 L 0.890625 -7.53125 L 4.15625 -7.53125 C 4.820312 -7.53125 5.398438 -7.421875 5.890625 -7.203125 C 6.378906 -6.984375 6.753906 -6.664062 7.015625 -6.25 C 7.285156 -5.84375 7.421875 -5.359375 7.421875 -4.796875 C 7.421875 -4.242188 7.285156 -3.765625 7.015625 -3.359375 C 6.753906 -2.953125 6.375 -2.640625 5.875 -2.421875 L 7.5625 0 Z M 5.65625 -4.796875 C 5.65625 -5.222656 5.519531 -5.546875 5.25 -5.765625 C 4.976562 -5.992188 4.582031 -6.109375 4.0625 -6.109375 L 2.640625 -6.109375 L 2.640625 -3.484375 L 4.0625 -3.484375 C 4.582031 -3.484375 4.976562 -3.597656 5.25 -3.828125 C 5.519531 -4.054688 5.65625 -4.378906 5.65625 -4.796875 Z M 5.65625 -4.796875 "/></g></g></g><g fill="#ffffff" fill-opacity="1"><g transform="translate(133.115476, 75.937565)"><g/></g></g><g fill="#ffffff" fill-opacity="1"><g transform="translate(138.294081, 75.937565)"><g><path d="M 5.859375 -1.609375 L 2.359375 -1.609375 L 1.6875 0 L -0.09375 0 L 3.265625 -7.53125 L 4.984375 -7.53125 L 8.359375 0 L 6.53125 0 Z M 5.3125 -2.9375 L 4.109375 -5.828125 L 2.921875 -2.9375 Z M 5.3125 -2.9375 "/></g></g></g><g fill="#ffffff" fill-opacity="1"><g transform="translate(148.6714, 75.937565)"><g><path d="M 0.890625 -7.53125 L 2.640625 -7.53125 L 2.640625 0 L 0.890625 0 Z M 0.890625 -7.53125 "/></g></g></g><g fill="#ffffff" fill-opacity="1"><g transform="translate(154.334358, 75.937565)"><g/></g></g><g fill="#ffffff" fill-opacity="1"><g transform="translate(159.512963, 75.937565)"><g><path d="M 2.453125 -6.109375 L 0.046875 -6.109375 L 0.046875 -7.53125 L 6.609375 -7.53125 L 6.609375 -6.109375 L 4.203125 -6.109375 L 4.203125 0 L 2.453125 0 Z M 2.453125 -6.109375 "/></g></g></g><g fill="#ffffff" fill-opacity="1"><g transform="translate(168.297304, 75.937565)"><g><path d="M 5.6875 0 L 4.234375 -2.09375 L 2.640625 -2.09375 L 2.640625 0 L 0.890625 0 L 0.890625 -7.53125 L 4.15625 -7.53125 C 4.820312 -7.53125 5.398438 -7.421875 5.890625 -7.203125 C 6.378906 -6.984375 6.753906 -6.664062 7.015625 -6.25 C 7.285156 -5.84375 7.421875 -5.359375 7.421875 -4.796875 C 7.421875 -4.242188 7.285156 -3.765625 7.015625 -3.359375 C 6.753906 -2.953125 6.375 -2.640625 5.875 -2.421875 L 7.5625 0 Z M 5.65625 -4.796875 C 5.65625 -5.222656 5.519531 -5.546875 5.25 -5.765625 C 4.976562 -5.992188 4.582031 -6.109375 4.0625 -6.109375 L 2.640625 -6.109375 L 2.640625 -3.484375 L 4.0625 -3.484375 C 4.582031 -3.484375 4.976562 -3.597656 5.25 -3.828125 C 5.519531 -4.054688 5.65625 -4.378906 5.65625 -4.796875 Z M 5.65625 -4.796875 "/></g></g></g><g fill="#ffffff" fill-opacity="1"><g transform="translate(178.340952, 75.937565)"><g><path d="M 5.859375 -1.609375 L 2.359375 -1.609375 L 1.6875 0 L -0.09375 0 L 3.265625 -7.53125 L 4.984375 -7.53125 L 8.359375 0 L 6.53125 0 Z M 5.3125 -2.9375 L 4.109375 -5.828125 L 2.921875 -2.9375 Z M 5.3125 -2.9375 "/></g></g></g><g fill="#ffffff" fill-opacity="1"><g transform="translate(188.718277, 75.937565)"><g><path d="M 8.140625 -7.53125 L 4.875 0 L 3.15625 0 L -0.09375 -7.53125 L 1.78125 -7.53125 L 4.078125 -2.15625 L 6.40625 -7.53125 Z M 8.140625 -7.53125 "/></g></g></g><g fill="#ffffff" fill-opacity="1"><g transform="translate(198.88033, 75.937565)"><g><path d="M 6.734375 -1.40625 L 6.734375 0 L 0.890625 0 L 0.890625 -7.53125 L 6.59375 -7.53125 L 6.59375 -6.140625 L 2.625 -6.140625 L 2.625 -4.5 L 6.125 -4.5 L 6.125 -3.140625 L 2.625 -3.140625 L 2.625 -1.40625 Z M 6.734375 -1.40625 "/></g></g></g><g fill="#ffffff" fill-opacity="1"><g transform="translate(208.235122, 75.937565)"><g><path d="M 0.890625 -7.53125 L 2.640625 -7.53125 L 2.640625 -1.421875 L 6.421875 -1.421875 L 6.421875 0 L 0.890625 0 Z M 0.890625 -7.53125 "/></g></g></g><g fill="#ffffff" fill-opacity="1"><g transform="translate(216.86877, 75.937565)"><g/></g></g><g fill="#ffffff" fill-opacity="1"><g transform="translate(222.047375, 75.937565)"><g><path d="M 4.5 0.125 C 3.726562 0.125 3.03125 -0.0390625 2.40625 -0.375 C 1.789062 -0.707031 1.304688 -1.164062 0.953125 -1.75 C 0.597656 -2.34375 0.421875 -3.015625 0.421875 -3.765625 C 0.421875 -4.515625 0.597656 -5.179688 0.953125 -5.765625 C 1.304688 -6.359375 1.789062 -6.820312 2.40625 -7.15625 C 3.03125 -7.5 3.734375 -7.671875 4.515625 -7.671875 C 5.160156 -7.671875 5.75 -7.550781 6.28125 -7.3125 C 6.8125 -7.082031 7.253906 -6.753906 7.609375 -6.328125 L 6.484375 -5.296875 C 5.984375 -5.878906 5.351562 -6.171875 4.59375 -6.171875 C 4.125 -6.171875 3.707031 -6.066406 3.34375 -5.859375 C 2.976562 -5.660156 2.691406 -5.378906 2.484375 -5.015625 C 2.285156 -4.648438 2.1875 -4.234375 2.1875 -3.765625 C 2.1875 -3.296875 2.285156 -2.878906 2.484375 -2.515625 C 2.691406 -2.148438 2.976562 -1.863281 3.34375 -1.65625 C 3.707031 -1.457031 4.125 -1.359375 4.59375 -1.359375 C 5.351562 -1.359375 5.984375 -1.65625 6.484375 -2.25 L 7.609375 -1.21875 C 7.253906 -0.78125 6.8125 -0.445312 6.28125 -0.21875 C 5.75 0.0078125 5.15625 0.125 4.5 0.125 Z M 4.5 0.125 "/></g></g></g><g fill="#ffffff" fill-opacity="1"><g transform="translate(232.069498, 75.937565)"><g><path d="M 4.546875 0.125 C 3.765625 0.125 3.054688 -0.0390625 2.421875 -0.375 C 1.796875 -0.707031 1.304688 -1.171875 0.953125 -1.765625 C 0.597656 -2.359375 0.421875 -3.023438 0.421875 -3.765625 C 0.421875 -4.503906 0.597656 -5.171875 0.953125 -5.765625 C 1.304688 -6.359375 1.796875 -6.820312 2.421875 -7.15625 C 3.054688 -7.5 3.765625 -7.671875 4.546875 -7.671875 C 5.328125 -7.671875 6.03125 -7.5 6.65625 -7.15625 C 7.28125 -6.820312 7.769531 -6.359375 8.125 -5.765625 C 8.488281 -5.171875 8.671875 -4.503906 8.671875 -3.765625 C 8.671875 -3.023438 8.488281 -2.359375 8.125 -1.765625 C 7.769531 -1.171875 7.28125 -0.707031 6.65625 -0.375 C 6.03125 -0.0390625 5.328125 0.125 4.546875 0.125 Z M 4.546875 -1.359375 C 4.984375 -1.359375 5.378906 -1.457031 5.734375 -1.65625 C 6.097656 -1.863281 6.382812 -2.148438 6.59375 -2.515625 C 6.800781 -2.878906 6.90625 -3.296875 6.90625 -3.765625 C 6.90625 -4.234375 6.800781 -4.648438 6.59375 -5.015625 C 6.382812 -5.378906 6.097656 -5.660156 5.734375 -5.859375 C 5.378906 -6.066406 4.984375 -6.171875 4.546875 -6.171875 C 4.097656 -6.171875 3.691406 -6.066406 3.328125 -5.859375 C 2.972656 -5.660156 2.691406 -5.378906 2.484375 -5.015625 C 2.285156 -4.648438 2.1875 -4.234375 2.1875 -3.765625 C 2.1875 -3.296875 2.285156 -2.878906 2.484375 -2.515625 C 2.691406 -2.148438 2.972656 -1.863281 3.328125 -1.65625 C 3.691406 -1.457031 4.097656 -1.359375 4.546875 -1.359375 Z M 4.546875 -1.359375 "/></g></g></g><g fill="#ffffff" fill-opacity="1"><g transform="translate(243.286355, 75.937565)"><g><path d="M 7.75 0 L 7.734375 -4.515625 L 5.515625 -0.796875 L 4.734375 -0.796875 L 2.53125 -4.421875 L 2.53125 0 L 0.890625 0 L 0.890625 -7.53125 L 2.34375 -7.53125 L 5.15625 -2.859375 L 7.9375 -7.53125 L 9.359375 -7.53125 L 9.390625 0 Z M 7.75 0 "/></g></g></g><g fill="#ffffff" fill-opacity="1"><g transform="translate(255.697945, 75.937565)"><g><path d="M 4.15625 -7.53125 C 4.820312 -7.53125 5.398438 -7.421875 5.890625 -7.203125 C 6.378906 -6.984375 6.753906 -6.664062 7.015625 -6.25 C 7.285156 -5.84375 7.421875 -5.359375 7.421875 -4.796875 C 7.421875 -4.242188 7.285156 -3.757812 7.015625 -3.34375 C 6.753906 -2.9375 6.378906 -2.625 5.890625 -2.40625 C 5.398438 -2.1875 4.820312 -2.078125 4.15625 -2.078125 L 2.640625 -2.078125 L 2.640625 0 L 0.890625 0 L 0.890625 -7.53125 Z M 4.0625 -3.5 C 4.582031 -3.5 4.976562 -3.609375 5.25 -3.828125 C 5.519531 -4.054688 5.65625 -4.378906 5.65625 -4.796875 C 5.65625 -5.222656 5.519531 -5.546875 5.25 -5.765625 C 4.976562 -5.992188 4.582031 -6.109375 4.0625 -6.109375 L 2.640625 -6.109375 L 2.640625 -3.5 Z M 4.0625 -3.5 "/></g></g></g><g fill="#ffffff" fill-opacity="1"><g transform="translate(265.709306, 75.937565)"><g><path d="M 5.859375 -1.609375 L 2.359375 -1.609375 L 1.6875 0 L -0.09375 0 L 3.265625 -7.53125 L 4.984375 -7.53125 L 8.359375 0 L 6.53125 0 Z M 5.3125 -2.9375 L 4.109375 -5.828125 L 2.921875 -2.9375 Z M 5.3125 -2.9375 "/></g></g></g><g fill="#ffffff" fill-opacity="1"><g transform="translate(276.086625, 75.937565)"><g><path d="M 7.8125 -7.53125 L 7.8125 0 L 6.375 0 L 2.609375 -4.578125 L 2.609375 0 L 0.890625 0 L 0.890625 -7.53125 L 2.34375 -7.53125 L 6.078125 -2.953125 L 6.078125 -7.53125 Z M 7.8125 -7.53125 "/></g></g></g><g fill="#ffffff" fill-opacity="1"><g transform="translate(286.916011, 75.937565)"><g><path d="M 0.890625 -7.53125 L 2.640625 -7.53125 L 2.640625 0 L 0.890625 0 Z M 0.890625 -7.53125 "/></g></g></g><g fill="#ffffff" fill-opacity="1"><g transform="translate(292.578969, 75.937565)"><g><path d="M 4.546875 0.125 C 3.765625 0.125 3.054688 -0.0390625 2.421875 -0.375 C 1.796875 -0.707031 1.304688 -1.171875 0.953125 -1.765625 C 0.597656 -2.359375 0.421875 -3.023438 0.421875 -3.765625 C 0.421875 -4.503906 0.597656 -5.171875 0.953125 -5.765625 C 1.304688 -6.359375 1.796875 -6.820312 2.421875 -7.15625 C 3.054688 -7.5 3.765625 -7.671875 4.546875 -7.671875 C 5.328125 -7.671875 6.03125 -7.5 6.65625 -7.15625 C 7.28125 -6.820312 7.769531 -6.359375 8.125 -5.765625 C 8.488281 -5.171875 8.671875 -4.503906 8.671875 -3.765625 C 8.671875 -3.023438 8.488281 -2.359375 8.125 -1.765625 C 7.769531 -1.171875 7.28125 -0.707031 6.65625 -0.375 C 6.03125 -0.0390625 5.328125 0.125 4.546875 0.125 Z M 4.546875 -1.359375 C 4.984375 -1.359375 5.378906 -1.457031 5.734375 -1.65625 C 6.097656 -1.863281 6.382812 -2.148438 6.59375 -2.515625 C 6.800781 -2.878906 6.90625 -3.296875 6.90625 -3.765625 C 6.90625 -4.234375 6.800781 -4.648438 6.59375 -5.015625 C 6.382812 -5.378906 6.097656 -5.660156 5.734375 -5.859375 C 5.378906 -6.066406 4.984375 -6.171875 4.546875 -6.171875 C 4.097656 -6.171875 3.691406 -6.066406 3.328125 -5.859375 C 2.972656 -5.660156 2.691406 -5.378906 2.484375 -5.015625 C 2.285156 -4.648438 2.1875 -4.234375 2.1875 -3.765625 C 2.1875 -3.296875 2.285156 -2.878906 2.484375 -2.515625 C 2.691406 -2.148438 2.972656 -1.863281 3.328125 -1.65625 C 3.691406 -1.457031 4.097656 -1.359375 4.546875 -1.359375 Z M 4.546875 -1.359375 "/></g></g></g><g fill="#ffffff" fill-opacity="1"><g transform="translate(303.795825, 75.937565)"><g><path d="M 7.8125 -7.53125 L 7.8125 0 L 6.375 0 L 2.609375 -4.578125 L 2.609375 0 L 0.890625 0 L 0.890625 -7.53125 L 2.34375 -7.53125 L 6.078125 -2.953125 L 6.078125 -7.53125 Z M 7.8125 -7.53125 "/></g></g></g></svg>